<svg width="552" height="552" viewBox="0 0 552 552" fill="none" xmlns="http://www.w3.org/2000/svg">
<path d="M525.46 187.757C525.459 161.321 517.621 135.479 502.937 113.498C488.252 91.5161 467.381 74.3814 442.96 64.2595C418.539 54.1377 391.666 51.4831 365.737 56.6314C339.807 61.7796 315.987 74.4996 297.285 93.1834L146.175 242.547C143.366 245.346 141.139 248.673 139.622 252.337C138.105 256.001 137.327 259.928 137.335 263.894V423.909L72.1296 489.114C70.8585 490.298 69.839 491.727 69.1319 493.314C68.4248 494.901 68.0446 496.614 68.0139 498.351C67.9833 500.088 68.3028 501.814 68.9535 503.425C69.6042 505.035 70.5727 506.499 71.8012 507.727C73.0297 508.956 74.4931 509.924 76.1041 510.575C77.715 511.226 79.4405 511.545 81.1776 511.515C82.9148 511.484 84.6279 511.104 86.2149 510.397C87.8019 509.69 89.2302 508.67 90.4146 507.399L155.62 442.194H315.635C319.6 442.201 323.528 441.424 327.192 439.907C330.855 438.389 334.183 436.162 336.982 433.353L485.397 283.214L486.237 282.351C498.709 269.964 508.598 255.224 515.331 238.986C522.064 222.748 525.507 205.335 525.46 187.757ZM315.527 111.511C335.527 91.6756 362.496 80.4547 390.663 80.2496C418.831 80.0445 445.96 90.8714 466.246 110.414C486.533 129.957 498.365 156.663 499.212 184.818C500.059 212.974 489.852 240.343 470.777 261.069H336.745L418.165 179.649C420.45 177.196 421.694 173.953 421.635 170.601C421.576 167.249 420.218 164.051 417.848 161.681C415.477 159.311 412.279 157.953 408.928 157.894C405.576 157.835 402.332 159.079 399.88 161.364L296.38 264.864L266.71 294.534V159.725L315.527 111.511ZM163.21 263.894C163.208 262.776 163.641 261.701 164.417 260.896L240.835 185.428V320.474L163.21 398.099V263.894ZM318.654 415.068C317.85 415.865 316.766 416.314 315.635 416.319H181.495L262.915 334.921L310.87 286.944H445.312L318.654 415.068Z" fill="#85B6FF" fill-opacity="0.3"/>
</svg>
